<?xml version="1.0" standalone="no"?>
<!DOCTYPE svg PUBLIC "-//W3C//DTD SVG 20010904//EN"
 "http://www.w3.org/TR/2001/REC-SVG-20010904/DTD/svg10.dtd">
<svg version="1.0" xmlns="http://www.w3.org/2000/svg"
 width="512.000000pt" height="512.000000pt" viewBox="0 0 512.000000 512.000000"
 preserveAspectRatio="xMidYMid meet">

<g transform="translate(0.000000,512.000000) scale(0.100000,-0.100000)"
fill="#000000" stroke="none">
<path d="M1180 5108 c-27 -7 -148 -123 -548 -521 -547 -546 -552 -553 -538
-632 9 -47 59 -102 104 -115 20 -5 112 -10 205 -10 l167 0 0 -369 c0 -232 4
-380 10 -397 22 -56 80 -71 119 -31 l22 24 -3 421 -3 420 -25 27 c-48 51 -65
55 -260 55 -99 0 -180 3 -180 8 0 4 219 227 488 495 378 378 493 487 512 487
19 0 134 -109 512 -487 269 -268 488 -491 488 -495 0 -5 -81 -8 -180 -8 -195
0 -212 -4 -260 -55 l-25 -27 -3 -755 c-2 -711 -3 -755 -20 -750 -9 3 -55 19
-102 36 -144 51 -238 66 -410 66 -173 0 -266 -15 -410 -67 -47 -16 -93 -32
-102 -35 -17 -5 -18 8 -18 185 0 184 -1 192 -22 212 -24 22 -58 26 -88 10 -33
-18 -40 -66 -40 -289 l0 -216 -48 -30 c-71 -44 -242 -219 -302 -309 -292 -437
-292 -976 0 -1412 68 -101 223 -256 324 -324 317 -212 687 -272 1056 -170 104
29 300 127 395 198 163 121 294 283 386 476 250 524 90 1168 -378 1522 l-73
55 0 765 0 764 168 0 c92 0 184 5 204 10 45 13 95 68 104 115 14 79 9 86 -538
632 -437 436 -519 513 -553 522 -48 13 -87 13 -135 -1z m295 -2782 c219 -47
400 -148 560 -311 498 -508 389 -1339 -224 -1709 -91 -55 -224 -108 -333 -133
-99 -22 -355 -23 -453 0 -432 99 -759 427 -852 855 -22 97 -24 328 -4 427 44
224 150 418 316 580 170 165 374 267 611 305 81 12 294 5 379 -14z"/>
<path d="M455 1590 c-49 -19 -50 -24 -50 -341 0 -373 -15 -344 178 -344 119 0
137 2 180 24 90 44 140 150 116 244 -6 26 -24 65 -39 86 -28 38 -28 40 -13 82
36 105 -29 217 -142 248 -46 13 -200 14 -230 1z m215 -160 c42 -42 13 -80 -61
-80 l-49 0 0 50 0 50 45 0 c32 0 51 -6 65 -20z m24 -241 c13 -7 30 -24 37 -40
9 -24 9 -33 -5 -54 -21 -33 -54 -45 -117 -45 l-49 0 0 75 0 75 55 0 c30 0 65
-5 79 -11z"/>
<path d="M1000 1571 l-31 -31 3 -227 c3 -213 4 -231 25 -269 66 -123 228 -173
356 -110 65 31 119 89 135 145 15 47 16 454 2 480 -5 10 -22 24 -39 30 -24 10
-34 10 -59 -3 -16 -8 -32 -23 -36 -31 -3 -9 -6 -111 -6 -227 l0 -210 -30 -28
c-49 -46 -112 -48 -166 -5 l-29 23 -5 226 c-5 244 -6 248 -62 261 -22 6 -33 1
-58 -24z"/>
<path d="M1645 1588 c-65 -35 -60 -67 40 -219 l85 -130 0 -140 0 -141 30 -30
c25 -24 36 -29 58 -24 55 13 62 35 62 187 l0 138 85 130 c64 98 85 139 85 164
0 46 -27 69 -77 65 -36 -3 -41 -8 -98 -95 -33 -51 -63 -92 -67 -93 -3 0 -32
40 -63 89 -32 50 -67 93 -81 100 -30 13 -34 13 -59 -1z"/>
<path d="M3685 5106 c-187 -31 -363 -100 -521 -206 -101 -68 -256 -223 -324
-324 -293 -438 -292 -979 3 -1415 65 -97 188 -224 276 -287 l70 -49 1 -767 0
-768 -167 0 c-93 0 -185 -5 -205 -10 -45 -13 -95 -68 -104 -115 -14 -79 -9
-86 538 -632 538 -536 534 -533 618 -533 84 0 80 -3 618 533 547 546 552 553
538 632 -9 47 -59 102 -104 115 -20 5 -112 10 -204 10 l-168 0 0 765 0 764 78
60 c403 310 579 827 447 1319 -55 207 -113 270 -187 204 -25 -22 -22 -56 12
-152 52 -141 63 -210 63 -380 0 -174 -12 -244 -67 -390 -128 -343 -430 -603
-798 -687 -99 -22 -355 -23 -453 0 -432 99 -759 427 -852 855 -22 97 -24 328
-4 427 44 224 150 418 316 580 321 313 781 399 1199 225 107 -45 236 -132 339
-229 95 -90 121 -98 162 -56 45 45 35 70 -68 170 -176 171 -379 279 -622 330
-106 23 -327 28 -430 11z m-223 -2415 c148 -52 236 -66 408 -66 172 0 266 15
410 66 47 17 93 33 102 36 17 5 18 -39 20 -750 l3 -755 25 -27 c48 -51 65 -55
260 -55 99 0 180 -3 180 -8 0 -4 -219 -227 -488 -495 -378 -378 -493 -487
-512 -487 -19 0 -134 109 -512 487 -269 268 -488 491 -488 495 0 5 81 8 180 8
195 0 212 4 260 55 l25 27 3 755 c2 711 3 755 20 750 9 -3 56 -19 104 -36z"/>
<path d="M3128 4207 c-97 -28 -153 -99 -152 -194 0 -95 46 -140 201 -198 89
-34 113 -50 113 -79 0 -73 -121 -83 -205 -16 -49 39 -95 40 -124 4 -32 -40
-26 -63 28 -115 56 -54 127 -82 211 -83 72 0 124 18 173 63 48 43 67 85 67
146 0 102 -56 161 -210 221 -55 21 -102 45 -105 51 -8 23 6 42 38 53 37 11 79
2 143 -32 53 -28 89 -19 110 26 25 51 5 83 -76 123 -76 38 -146 48 -212 30z"/>
<path d="M4065 4208 c-44 -24 -45 -28 -45 -337 1 -329 0 -326 67 -342 54 -12
184 -11 222 2 54 19 69 79 28 117 -19 18 -35 22 -95 22 l-72 0 0 244 c0 134
-3 252 -6 261 -6 15 -54 45 -71 45 -4 0 -17 -6 -28 -12z"/>
<path d="M4503 4210 c-12 -5 -26 -18 -32 -29 -7 -13 -11 -125 -11 -314 0 -370
-14 -342 165 -342 126 0 127 0 151 28 29 34 30 56 3 91 -19 24 -26 26 -95 26
l-74 0 0 246 0 246 -29 29 c-31 31 -42 33 -78 19z"/>
<path d="M3561 4184 c-20 -26 -21 -38 -21 -314 0 -276 1 -288 21 -314 l20 -26
149 0 149 0 20 26 c27 35 26 57 -3 91 -23 26 -30 28 -115 31 l-91 4 0 54 0 54
64 0 c104 0 146 24 146 82 0 50 -21 63 -117 68 l-88 5 -3 56 -3 57 91 3 c86 4
93 6 116 32 29 34 30 56 3 91 l-20 26 -149 0 -149 0 -20 -26z"/>
</g>
</svg>
