<svg width="34" height="35" viewBox="0 0 34 35" fill="none" xmlns="http://www.w3.org/2000/svg">
<path d="M25.9762 12.4446H27.4498C28.6443 12.4446 29.6109 13.4112 29.6109 14.6057V28.3404C29.6109 29.5335 28.6443 30.5001 27.4498 30.5001H12.3276C11.1332 30.5001 10.1665 29.5335 10.1665 28.339V26.3335" stroke="#CD9403" stroke-width="2.22222" stroke-linecap="round" stroke-linejoin="round"/>
<path fill-rule="evenodd" clip-rule="evenodd" d="M5.72366 25.7779H21.4348C22.3639 25.7779 23.2306 25.314 23.7459 24.5404L24.7653 23.0099C25.3737 22.0974 25.6987 21.0252 25.6987 19.9279V9.11127C25.6987 7.57655 24.4556 6.3335 22.9209 6.3335H9.03199C7.49727 6.3335 6.25421 7.57655 6.25421 9.11127V18.9113C6.25421 19.7738 6.05283 20.6238 5.6681 21.396L4.48199 23.7682C4.01949 24.6918 4.69172 25.7779 5.72366 25.7779Z" stroke="#CD9403" stroke-width="2.22222" stroke-linecap="round" stroke-linejoin="round"/>
<path d="M11.8055 4.94458V7.72236" stroke="#CD9403" stroke-width="2.22222" stroke-linecap="round" stroke-linejoin="round"/>
<path d="M20.1388 4.94458V7.72236" stroke="#CD9403" stroke-width="2.22222" stroke-linecap="round" stroke-linejoin="round"/>
<path d="M11.5415 13.2779H19.8748" stroke="#CD9403" stroke-width="2.22222" stroke-linecap="round" stroke-linejoin="round"/>
<path d="M11.5415 18.8336H19.8748" stroke="#CD9403" stroke-width="2.22222" stroke-linecap="round" stroke-linejoin="round"/>
</svg>
