<svg width="131" height="33" viewBox="0 0 131 33" fill="none" xmlns="http://www.w3.org/2000/svg">
<path d="M53.0848 23.2823C53.0848 24.6028 52.8554 25.8403 52.3965 26.9949C51.9376 28.1495 51.2963 29.1575 50.4734 30.0172C49.6496 30.8779 48.6674 31.5551 47.5266 32.05C46.3849 32.5448 45.1327 32.7927 43.768 32.7927C42.4033 32.7927 41.1152 32.5457 39.9744 32.0518C38.8327 31.5579 37.8514 30.8816 37.0276 30.0228C36.2038 29.164 35.5634 28.1587 35.1045 27.0059C34.6456 25.8532 34.4162 24.6184 34.4162 23.2999V6.11292H39.0751L39.1101 15.9061C39.792 15.1708 40.5798 14.6317 41.4745 14.288C42.3683 13.9443 43.3451 13.772 44.4038 13.772C45.6035 13.772 46.7332 14.0199 47.792 14.5147C48.8507 15.0095 49.7685 15.6933 50.5444 16.5659C51.3212 17.4385 51.9385 18.4521 52.3974 19.6067C52.8563 20.7612 53.0857 21.9868 53.0857 23.2833L53.0848 23.2823ZM48.4259 23.3349C48.4259 22.582 48.3016 21.8882 48.0537 21.2524C47.8058 20.6175 47.4695 20.0646 47.0438 19.5938C46.619 19.1238 46.1232 18.7589 45.5556 18.5C44.9889 18.2411 44.3863 18.1121 43.7496 18.1121C43.1129 18.1121 42.5093 18.2475 41.9426 18.5175C41.3759 18.7884 40.8802 19.1588 40.4545 19.6288C40.0297 20.0996 39.6934 20.6525 39.4446 21.2874C39.1967 21.9223 39.0732 22.6051 39.0732 23.3339C39.0732 24.0628 39.1967 24.7051 39.4446 25.328C39.6924 25.9518 40.0288 26.4927 40.4545 26.9516C40.8793 27.4104 41.375 27.7753 41.9426 28.0453C42.5093 28.3162 43.1119 28.4508 43.7496 28.4508C44.3872 28.4508 44.9889 28.3218 45.5556 28.0628C46.1223 27.8039 46.6181 27.4455 47.0438 26.9866C47.4686 26.5277 47.8049 25.9868 48.0537 25.363C48.3016 24.7401 48.4259 24.0637 48.4259 23.3339V23.3349Z" fill="#272425"/>
<path d="M64.3883 18.218C62.9057 17.9591 61.7115 18.1775 60.8066 18.8704C59.9008 19.5643 59.4475 20.5594 59.4475 21.8522V32.3688H54.7886V21.8522C54.7886 20.5585 55.0061 19.3818 55.441 18.3231C55.8759 17.2643 56.5053 16.3705 57.329 15.6407C58.1528 14.9119 59.1581 14.382 60.3468 14.0531C61.5345 13.7241 62.8817 13.6532 64.3874 13.8411V18.2171L64.3883 18.218Z" fill="#272425"/>
<path d="M83.0679 32.3697H78.6569V30.4448C77.9741 31.2041 77.1568 31.7791 76.204 32.1707C75.2513 32.5614 74.222 32.7576 73.1163 32.7576C71.9165 32.7576 70.7868 32.5107 69.7281 32.0177C68.6693 31.5247 67.746 30.8493 66.9573 29.9924C66.1685 29.1354 65.5456 28.1375 65.0867 26.9986C64.6278 25.8596 64.3984 24.6323 64.3984 23.3174C64.3984 22.0024 64.6278 20.7631 65.0867 19.6002C65.5456 18.4383 66.186 17.4284 67.0098 16.5714C67.8336 15.7145 68.8149 15.0335 69.9566 14.5285C71.0974 14.0236 72.3616 13.7711 73.7502 13.7711C75.1388 13.7711 76.3671 14.0236 77.5088 14.5285C78.6496 15.0335 79.6318 15.7145 80.4556 16.5714C81.2785 17.4284 81.9198 18.4383 82.3787 19.6002C82.8376 20.7622 83.067 22.0015 83.067 23.3164V32.3688L83.0679 32.3697ZM78.4091 23.3174C78.4091 22.5903 78.2847 21.9103 78.0368 21.2773C77.7889 20.6442 77.4526 20.0932 77.0269 19.6251C76.6021 19.1561 76.1064 18.7866 75.5387 18.5175C74.9721 18.2475 74.3694 18.113 73.7318 18.113C73.0941 18.113 72.4915 18.242 71.9248 18.5C71.3581 18.758 70.8624 19.1211 70.4367 19.5901C70.0119 20.0591 69.6756 20.6101 69.4268 21.2432C69.1789 21.8762 69.0554 22.5682 69.0554 23.3183C69.0554 24.0683 69.1789 24.7198 69.4268 25.3399C69.6746 25.961 70.011 26.501 70.4367 26.958C70.8615 27.416 71.3572 27.7735 71.9248 28.0315C72.4915 28.2895 73.0941 28.4176 73.7318 28.4176C74.3694 28.4176 74.9711 28.2831 75.5387 28.0131C76.1054 27.7431 76.6012 27.38 77.0269 26.923C77.4517 26.466 77.788 25.9269 78.0368 25.3049C78.2847 24.6839 78.4091 24.0213 78.4091 23.3174Z" fill="#272425"/>
<path d="M102.781 26.5821C102.239 28.4406 101.21 29.9408 99.6927 31.0815C98.1751 32.2232 96.2751 32.7936 93.9936 32.7936C92.6989 32.7936 91.4881 32.5466 90.3584 32.0527C89.2287 31.5588 88.2409 30.8825 87.3941 30.0237C86.5473 29.1649 85.882 28.1596 85.4001 27.0069C84.9173 25.8541 84.6768 24.6194 84.6768 23.3008C84.6768 21.9822 84.9182 20.7419 85.4001 19.5772C85.882 18.4125 86.5473 17.4007 87.3941 16.5419C88.2409 15.6831 89.2297 15.0012 90.3584 14.4954C91.4881 13.9895 92.6989 13.7361 93.9936 13.7361C95.0754 13.7361 96.1111 13.9066 97.0989 14.2475C98.0867 14.5884 98.9749 15.0833 99.7637 15.7301C100.552 16.377 101.222 17.1713 101.775 18.1121C102.328 19.0529 102.71 20.1356 102.922 21.3593L90.0765 26.759C90.5464 27.3708 91.1113 27.8472 91.7701 28.1882C92.428 28.53 93.1578 28.6996 93.9586 28.6996C94.7114 28.6996 95.4412 28.5291 96.147 28.1882C96.8528 27.8472 97.4057 27.3119 97.8056 26.5821H102.781H102.781ZM97.5577 19.4537C97.1339 18.9368 96.616 18.5359 96.0051 18.254C95.3933 17.972 94.7105 17.8301 93.9586 17.8301C93.2758 17.8301 92.6409 17.96 92.053 18.218C91.4651 18.477 90.9528 18.8354 90.5179 19.2943C90.082 19.7532 89.7291 20.3005 89.4591 20.9354C89.1882 21.5703 89.0408 22.2761 89.0177 23.0529L97.5587 19.4528L97.5577 19.4537Z" fill="#272425"/>
<path d="M104.439 6.11292H109.098V24.7465C109.098 26.0412 109.389 26.9405 109.972 27.4464C110.554 27.9523 111.427 28.1697 112.592 28.0997V32.3347C111.251 32.4757 110.075 32.3927 109.063 32.0877C108.051 31.7818 107.204 31.2935 106.522 30.6236C105.839 29.9527 105.322 29.1179 104.969 28.1181C104.616 27.1183 104.44 25.9951 104.44 24.7475V6.11292H104.439Z" fill="#272425"/>
<path d="M121.824 13.7361C123.095 13.7361 124.283 13.9775 125.388 14.4594C126.494 14.9423 127.464 15.6122 128.3 16.471C129.135 17.3298 129.794 18.3415 130.277 19.5062C130.759 20.6709 131 21.9361 131 23.2998C131 24.6636 130.759 25.9232 130.277 27.076C129.794 28.2287 129.135 29.2285 128.3 30.0753C127.464 30.9221 126.494 31.5874 125.388 32.0693C124.283 32.5512 123.095 32.7927 121.824 32.7927C120.553 32.7927 119.366 32.5512 118.26 32.0693C117.154 31.5874 116.19 30.9221 115.366 30.0753C114.542 29.2285 113.889 28.2287 113.407 27.076C112.924 25.9232 112.683 24.6645 112.683 23.2998C112.683 21.9352 112.925 20.6709 113.407 19.5062C113.889 18.3415 114.541 17.3298 115.366 16.471C116.19 15.6122 117.153 14.9423 118.26 14.4594C119.366 13.9775 120.553 13.7361 121.824 13.7361ZM121.842 28.5236C122.456 28.5236 123.034 28.4001 123.578 28.1531C124.12 27.9062 124.599 27.5533 125.012 27.0944C125.426 26.6355 125.75 26.0891 125.986 25.4533C126.222 24.8184 126.341 24.1126 126.341 23.3358C126.341 22.559 126.222 21.8421 125.986 21.1833C125.75 20.5244 125.425 19.9605 125.012 19.4887C124.599 19.0188 124.12 18.6539 123.578 18.395C123.035 18.136 122.456 18.007 121.842 18.007C121.227 18.007 120.642 18.1369 120.087 18.395C119.533 18.6539 119.054 19.0188 118.653 19.4887C118.251 19.9596 117.932 20.5244 117.696 21.1833C117.46 21.8421 117.342 22.5599 117.342 23.3358C117.342 24.1116 117.46 24.8184 117.696 25.4533C117.932 26.0882 118.252 26.6355 118.653 27.0944C119.054 27.5533 119.533 27.9062 120.087 28.1531C120.642 28.4001 121.227 28.5236 121.842 28.5236Z" fill="#272425"/>
<path d="M24.5631 13.4974C24.0729 12.2636 23.4003 11.1616 22.5636 10.2208C21.7075 9.25876 20.6811 8.49395 19.5127 7.94753C18.3295 7.39374 17.0524 7.11361 15.7172 7.11361C14.5497 7.11361 13.4495 7.30896 12.447 7.69505C12.4037 7.71164 12.3613 7.72822 12.318 7.74573L12.2922 0.649624C12.2912 0.290258 11.9991 0 11.6398 0H6.07513C5.9019 0 5.73603 0.0691089 5.6144 0.190741L0.19074 5.61533C0.0681874 5.73788 0 5.90375 0 6.07606V22.4042C0 23.8177 0.251556 25.1658 0.747297 26.4116C1.24488 27.662 1.95256 28.7714 2.85097 29.7076C3.75307 30.6494 4.8413 31.3994 6.08434 31.9375C7.33199 32.4775 8.72246 32.7521 10.2161 32.7521C11.7098 32.7521 13.0671 32.4775 14.3157 31.9366C15.5523 31.3994 16.6368 30.6521 17.5371 29.715L18.0669 29.1852C22.4263 24.8267 22.4392 24.8138 22.4595 24.7917C23.3569 23.8536 24.0646 22.7433 24.5622 21.491C25.0579 20.2434 25.3095 18.8925 25.3095 17.4772C25.3095 16.0618 25.0579 14.7451 24.5622 13.4974H24.5631Z" fill="#272425"/>
<path d="M23.7817 17.4781C23.7817 18.7046 23.5689 19.8545 23.1422 20.9271C22.7156 21.9997 22.1204 22.9359 21.3556 23.7348C20.5898 24.5337 19.6776 25.163 18.6179 25.6238C17.5573 26.0836 16.3935 26.313 15.1265 26.313C13.8595 26.313 12.6626 26.0836 11.602 25.6247C10.5414 25.1658 9.62916 24.5374 8.86436 23.7394C8.09956 22.9414 7.5043 22.008 7.07767 20.9363C6.65103 19.8656 6.43818 18.7184 6.43818 17.4938V1.52869H10.7653L10.7976 10.6253C11.4315 9.94247 12.1632 9.4412 12.9943 9.12146C13.8245 8.80171 14.7322 8.6423 15.7153 8.6423C16.8303 8.6423 17.8789 8.87267 18.8621 9.33247C19.8453 9.79228 20.6976 10.4272 21.4191 11.2371C22.1406 12.0471 22.7138 12.9888 23.1404 14.0614C23.5661 15.1339 23.7799 16.2729 23.7799 17.4772L23.7817 17.4781Z" fill="white"/>
</svg>
